<svg version="1.1" id="Layer_2_00000016778424665486441700000011086203514276572037_"
  xmlns="http://www.w3.org/2000/svg"
  xmlns:xlink="http://www.w3.org/1999/xlink" x="0px" y="0px" viewBox="0 0 118.1 29.2" style="enable-background:new 0 0 118.1 29.2;" xml:space="preserve">
  <g id="Layer_1-2">
    <g>
      <path style="fill:#111829;" d="M117.8,12.6c0,0-1.3-0.1-2.6,0.4c-0.6,0.2-0.9,0.6-1,0.6c-0.3,0.3-0.5,0.7-0.7,1.2
			c-0.2,0.5-0.3,1.2-0.3,2c0,0-1.6-2.9-1.1-3.8c0.2-0.5,0.5-0.9,0.8-1.3c0.2-0.2,0.6-0.6,1.1-0.9c0.9-0.5,1.7-0.5,1.9-0.5
			c0.4,0,1.3,0,1.8,0.4c0,0,0.3,0.3,0.4,0.3c0,0,0,0,0,0C118.1,10.7,117.8,12.6,117.8,12.6L117.8,12.6z M110.1,23.8V10.5h2.7v4.1
			h0.4v9.2H110.1z"/>
      <path style="fill:#111829;" d="M46.7,12.3c-0.8,0-1.7,0-2.7,0.4c-0.6,0.2-0.9,0.5-1,0.6c-0.3,0.3-0.5,0.7-0.7,1.2s-0.3,1.2-0.3,2
			c0,0-1.6-2.9-1.1-3.8c0.2-0.5,0.5-0.9,0.8-1.3c0.2-0.2,0.6-0.6,1.1-0.9c0.6-0.3,1.1-0.4,1.9-0.5c0.1,0,0.6-0.1,1.2-0.1
			c0.4,0,0.7,0,0.9,0.1c0,0.4-0.1,0.8-0.1,1.2C46.7,11.6,46.7,11.9,46.7,12.3L46.7,12.3z M38.9,23.4V10.1h2.7v4.1H42v9.2H38.9z"/>
      <path style="fill:#111829;" d="M100.3,23.9c-1,0-1.8-0.2-2.5-0.5c-0.7-0.4-1.2-0.9-1.5-1.5c-0.3-0.6-0.5-1.3-0.5-2
			c0-0.6,0.1-1.2,0.3-1.7c0.2-0.5,0.6-1,1-1.3c0.4-0.4,1-0.7,1.8-0.9c0.5-0.2,1.2-0.3,1.9-0.5c0.7-0.1,1.5-0.3,2.4-0.4
			c0.9-0.1,1.8-0.2,2.7-0.4l-1.1,0.6c0-0.9-0.2-1.6-0.6-2c-0.4-0.4-1.1-0.6-2.1-0.6c-0.6,0-1.2,0.1-1.8,0.4s-1,0.8-1.2,1.4l-2.7-0.9
			c0.3-1.1,1-2,1.9-2.7c0.9-0.7,2.2-1,3.8-1c1.2,0,2.2,0.2,3.2,0.6c0.9,0.4,1.6,1,2,1.9c0.2,0.5,0.4,0.9,0.4,1.4
			c0.1,0.5,0.1,1,0.1,1.6v8.2H105v-2.9l0.4,0.5c-0.6,1-1.3,1.7-2.1,2.1C102.5,23.7,101.5,24,100.3,23.9L100.3,23.9z M100.9,21.6
			c0.7,0,1.3-0.1,1.8-0.4c0.5-0.2,0.9-0.5,1.2-0.9s0.5-0.7,0.6-1c0.2-0.4,0.2-0.8,0.3-1.3c0-0.5,0-0.9,0-1.2l0.9,0.3
			c-0.9,0.1-1.7,0.3-2.3,0.4s-1.2,0.2-1.7,0.3c-0.5,0.1-0.9,0.2-1.2,0.3c-0.3,0.1-0.6,0.3-0.9,0.4s-0.4,0.4-0.6,0.6
			c-0.1,0.2-0.2,0.5-0.2,0.8c0,0.3,0.1,0.6,0.2,0.9s0.4,0.4,0.7,0.6C100,21.5,100.4,21.6,100.9,21.6L100.9,21.6z"/>
      <path style="fill:#111829;" d="M88.1,24.1c-1.4,0-2.6-0.3-3.6-0.9s-1.8-1.4-2.4-2.4c-0.6-1-0.9-2.2-0.9-3.6c0-1.4,0.3-2.7,0.8-3.8
			s1.3-1.9,2.4-2.5s2.2-0.9,3.5-0.9c1.4,0,2.6,0.3,3.6,1c1,0.6,1.7,1.6,2.2,2.7s0.7,2.6,0.5,4.1h-3v-1.1c0-1.4-0.3-2.5-0.8-3.2
			c-0.5-0.7-1.3-1-2.4-1c-1.2,0-2.1,0.4-2.7,1.1s-0.9,1.8-0.9,3.3c0,1.4,0.3,2.4,0.9,3.1c0.6,0.7,1.5,1.1,2.6,1.1
			c0.7,0,1.4-0.2,1.9-0.5c0.5-0.3,1-0.8,1.2-1.4l3,0.9c-0.5,1.2-1.3,2.1-2.4,2.8C90.6,23.8,89.4,24.1,88.1,24.1L88.1,24.1z
			 M83.5,17.9v-2.2h9.3v2.2H83.5z"/>
      <path style="fill:#111829;" d="M73,29.2c-0.8,0-1.5-0.1-2.2-0.3c-0.7-0.2-1.3-0.5-1.8-1c-0.6-0.4-1-0.9-1.3-1.5l2.8-1.3
			c0.3,0.5,0.6,0.8,1.1,1c0.5,0.2,1,0.4,1.5,0.4c0.6,0,1.2-0.1,1.7-0.3s0.9-0.5,1.1-0.9c0.3-0.4,0.4-0.9,0.4-1.5v-3.7h0.4v-9.8h2.6
			v13.5c0,0.3,0,0.6-0.1,0.9c0,0.3-0.1,0.6-0.1,0.9c-0.2,0.8-0.6,1.5-1.2,2c-0.6,0.5-1.3,0.9-2.1,1.2C74.9,29.1,74,29.2,73,29.2
			L73,29.2z M72.7,23.5c-1.2,0-2.3-0.3-3.2-0.9c-0.9-0.6-1.6-1.4-2.1-2.4c-0.5-1-0.8-2.2-0.8-3.5s0.2-2.5,0.8-3.5
			c0.5-1,1.2-1.8,2.2-2.4c0.9-0.6,2-0.9,3.3-0.9s2.3,0.3,3.2,0.9s1.5,1.4,2,2.4c0.4,1,0.7,2.2,0.7,3.5s-0.2,2.4-0.7,3.5
			c-0.4,1-1.1,1.8-2,2.4C75.2,23.2,74.1,23.5,72.7,23.5L72.7,23.5z M73.2,20.9c0.8,0,1.4-0.2,1.9-0.5c0.5-0.4,0.9-0.9,1.1-1.5
			c0.2-0.6,0.3-1.4,0.3-2.2s-0.1-1.6-0.3-2.2c-0.2-0.6-0.6-1.1-1.1-1.5c-0.5-0.4-1.1-0.5-1.9-0.5c-0.8,0-1.5,0.2-2,0.6
			c-0.5,0.4-0.9,0.9-1.2,1.5c-0.2,0.6-0.4,1.3-0.4,2.1s0.1,1.5,0.4,2.1c0.2,0.6,0.6,1.1,1.1,1.5C71.8,20.7,72.4,20.9,73.2,20.9
			L73.2,20.9z"/>
      <g>
        <rect x="48.7" y="10.1" style="fill:#111829;" width="3" height="13.3"/>
        <path style="fill:#111829;" d="M48.9,8.7C48.6,8,49,7.2,49.7,6.9c0.7-0.2,1.5,0,1.8,0.7c0.3,0.7,0,1.6-0.7,1.9
				C50.1,9.9,49.1,9.5,48.9,8.7L48.9,8.7z"/>
      </g>
      <g>
        <path style="fill:#111829;" d="M53.7,23.4c1,0,2,0,3,0v-7.6c-0.1-1.5,1.2-2.8,2.6-2.8c1.5,0,2.7,1.3,2.6,2.8v7.6h3v-7.6
				c-0.1-3-2.4-5.4-5.2-5.6c-3.1-0.3-6,2.2-6.1,5.6L53.7,23.4L53.7,23.4z"/>
        <rect x="53.7" y="10.2" style="fill:#111829;" width="3" height="13.2"/>
      </g>
      <path style="fill:#111829;" d="M36.9,10.2c-1,0-2,0-3,0v7.6c0.1,1.5-1.2,2.8-2.6,2.8c-1.5,0-2.6-1.3-2.6-2.8v-7.6c-1,0-2,0-3,0
			v7.6c0.1,3,2.4,5.4,5.1,5.6c3.1,0.3,6-2.2,6.1-5.6V10.2L36.9,10.2z"/>
      <g>

        <linearGradient id="SVGID_1_" gradientUnits="userSpaceOnUse" x1="-1.887704e-03" y1="20.0093" x2="23.51" y2="20.0093" gradientTransform="matrix(1 0 0 -1 0 32)">
          <stop offset="0" style="stop-color:#5B54A4"/>
          <stop offset="0.21" style="stop-color:#6054A4"/>
          <stop offset="0.48" style="stop-color:#7156A4"/>
          <stop offset="0.79" style="stop-color:#8D59A4"/>
          <stop offset="1" style="stop-color:#A45CA5"/>
        </linearGradient>
        <path style="fill:url(#SVGID_1_);" d="M12.9,0h9.4c0.6,0,1.2,0.5,1.2,1.2S23,2.4,22.3,2.4H14c-0.6,0-1.1,0.5-1.2,1.1l-0.3,19.3
				c0,0.6-0.5,1.1-1.2,1.1h-0.2c-0.6,0-1.2-0.5-1.2-1.2V3.5c0-0.6-0.5-1.2-1.2-1.2c-2.5,0-5,0-7.5,0C0.6,2.3,0,1.7,0,1.1
				c0-0.6,0.8-1.2,1.7-1H12.9z"/>

        <linearGradient id="SVGID_00000170989607581519803380000001290981020580711607_" gradientUnits="userSpaceOnUse" x1="16.65" y1="15.625" x2="23.4" y2="15.625" gradientTransform="matrix(1 0 0 -1 0 32)">
          <stop offset="0" style="stop-color:#5B54A4"/>
          <stop offset="0.21" style="stop-color:#6054A4"/>
          <stop offset="0.48" style="stop-color:#7156A4"/>
          <stop offset="0.79" style="stop-color:#8D59A4"/>
          <stop offset="1" style="stop-color:#A45CA5"/>
        </linearGradient>
        <path style="fill:url(#SVGID_00000170989607581519803380000001290981020580711607_);" d="M23,15.7h-0.4c-0.1-0.3-0.2-0.5-0.3-0.7
				l0.3-0.3c0.1-0.1,0.1-0.2,0.1-0.3s0-0.2-0.1-0.3l-0.4-0.4c-0.1-0.1-0.4-0.1-0.5,0L21.4,14c-0.2-0.1-0.5-0.2-0.7-0.3v-0.4
				c0-0.2-0.2-0.4-0.4-0.4h-0.6c-0.2,0-0.4,0.2-0.4,0.4v0.4c-0.3,0.1-0.5,0.2-0.7,0.3l-0.3-0.3c-0.1-0.1-0.4-0.1-0.5,0l-0.4,0.4
				c-0.1,0.1-0.1,0.2-0.1,0.3s0,0.2,0.1,0.3l0.3,0.3c-0.1,0.2-0.2,0.5-0.3,0.7H17c-0.2,0-0.4,0.2-0.4,0.4v0.6c0,0.2,0.2,0.4,0.4,0.4
				h0.4c0.1,0.3,0.2,0.5,0.3,0.7L17.4,18c-0.1,0.1-0.1,0.2-0.1,0.3s0,0.2,0.1,0.3l0.4,0.4c0.1,0.1,0.2,0.1,0.3,0.1s0.2,0,0.3-0.1
				l0.3-0.3c0.2,0.1,0.5,0.2,0.7,0.3v0.4c0,0.2,0.2,0.4,0.4,0.4h0.6c0.2,0,0.4-0.2,0.4-0.4V19c0.3-0.1,0.5-0.2,0.7-0.3l0.3,0.3
				c0.1,0.1,0.2,0.1,0.3,0.1s0.2,0,0.3-0.1l0.4-0.4c0.1-0.1,0.1-0.2,0.1-0.3s0-0.2-0.1-0.3l-0.3-0.3c0.1-0.2,0.2-0.5,0.3-0.7H23
				c0.2,0,0.4-0.2,0.4-0.4v-0.6C23.4,15.9,23.2,15.7,23,15.7z M20,17.5c-0.6,0-1.2-0.5-1.2-1.1s0.5-1.1,1.2-1.1s1.2,0.5,1.2,1.1
				C21.2,17,20.7,17.5,20,17.5z"/>

        <linearGradient id="SVGID_00000022555630514738920390000014782914703013769662_" gradientUnits="userSpaceOnUse" x1="13.97" y1="10.265" x2="17.95" y2="10.265" gradientTransform="matrix(1 0 0 -1 0 32)">
          <stop offset="0" style="stop-color:#5B54A4"/>
          <stop offset="0.21" style="stop-color:#6054A4"/>
          <stop offset="0.48" style="stop-color:#7156A4"/>
          <stop offset="0.79" style="stop-color:#8D59A4"/>
          <stop offset="1" style="stop-color:#A45CA5"/>
        </linearGradient>
        <path style="fill:url(#SVGID_00000022555630514738920390000014782914703013769662_);" d="M17.7,21.3h-0.2c0-0.1-0.1-0.3-0.2-0.4
				l0.1-0.1c0,0,0.1-0.1,0.1-0.1s0-0.1-0.1-0.1l-0.2-0.2c-0.1-0.1-0.2-0.1-0.3,0l-0.2,0.2c-0.1-0.1-0.3-0.1-0.4-0.2V20
				c0-0.1-0.1-0.2-0.2-0.2h-0.4c-0.1,0-0.2,0.1-0.2,0.2v0.2c-0.1,0-0.3,0.1-0.4,0.2L15,20.2c-0.1-0.1-0.2-0.1-0.3,0l-0.2,0.2
				c0,0-0.1,0.1-0.1,0.1s0,0.1,0.1,0.1l0.1,0.1c-0.1,0.1-0.1,0.3-0.2,0.4h-0.2c-0.1,0-0.2,0.1-0.2,0.2v0.4c0,0.1,0.1,0.2,0.2,0.2
				h0.2c0,0.1,0.1,0.3,0.2,0.4l-0.1,0.1c0,0-0.1,0.1-0.1,0.1s0,0.1,0.1,0.1l0.2,0.2c0,0,0.1,0.1,0.1,0.1s0.1,0,0.1-0.1l0.2-0.2
				c0.1,0.1,0.3,0.1,0.4,0.2v0.2c0,0.1,0.1,0.2,0.2,0.2h0.4c0.1,0,0.2-0.1,0.2-0.2v-0.2c0.1,0,0.3-0.1,0.4-0.2l0.2,0.2
				c0,0,0.1,0.1,0.1,0.1s0.1,0,0.1-0.1l0.2-0.2c0,0,0.1-0.1,0.1-0.1c0-0.1,0-0.1-0.1-0.1l-0.1-0.1c0.1-0.1,0.1-0.3,0.2-0.4h0.2
				c0.1,0,0.2-0.1,0.2-0.2v-0.4C17.9,21.4,17.8,21.3,17.7,21.3L17.7,21.3z M16,22.4c-0.4,0-0.7-0.3-0.7-0.7s0.3-0.7,0.7-0.7
				c0.4,0,0.7,0.3,0.7,0.7C16.6,22.1,16.3,22.4,16,22.4z"/>
      </g>
    </g>
  </g>
</svg>