<?xml version="1.0" encoding="UTF-8"?>
<svg id="Layer_2" data-name="Layer 2" xmlns="http://www.w3.org/2000/svg" xmlns:xlink="http://www.w3.org/1999/xlink" viewBox="0 0 23.5 23.97">
  <defs>
    <style>
      .cls-1 {
        fill: url(#linear-gradient);
      }

      .cls-1, .cls-2, .cls-3 {
        stroke-width: 0px;
      }

      .cls-2 {
        fill: url(#linear-gradient-2);
      }

      .cls-3 {
        fill: url(#linear-gradient-3);
      }
    </style>
    <linearGradient id="linear-gradient" x1="0" y1="11.98" x2="23.5" y2="11.98" gradientUnits="userSpaceOnUse">
      <stop offset="0" stop-color="#5b54a4"/>
      <stop offset=".21" stop-color="#6054a4"/>
      <stop offset=".48" stop-color="#7156a4"/>
      <stop offset=".79" stop-color="#8d59a4"/>
      <stop offset="1" stop-color="#a45ca5"/>
    </linearGradient>
    <linearGradient id="linear-gradient-2" x1="16.65" y1="16.37" x2="23.4" y2="16.37" xlink:href="#linear-gradient"/>
    <linearGradient id="linear-gradient-3" x1="13.97" y1="21.74" x2="17.95" y2="21.74" xlink:href="#linear-gradient"/>
  </defs>
  <g id="Layer_1-2" data-name="Layer 1">
    <g>
      <path class="cls-1" d="M12.91.04h9.44c.64,0,1.16.52,1.16,1.16s-.52,1.16-1.16,1.16h-8.3c-.63,0-1.15.51-1.16,1.14l-.28,19.34c0,.63-.52,1.14-1.16,1.14h-.25c-.64,0-1.16-.52-1.16-1.16V3.5c0-.64-.52-1.16-1.16-1.16-2.5,0-5,0-7.49,0C.56,2.35-.04,1.68,0,1.08.04.45.8-.16,1.67.04h11.24Z"/>
      <path class="cls-2" d="M23.03,15.7h-.36c-.07-.26-.17-.5-.31-.72l.26-.26c.07-.07.11-.16.11-.26s-.04-.19-.11-.26l-.43-.43c-.14-.14-.38-.14-.52,0l-.27.27c-.22-.13-.46-.23-.72-.29v-.38c0-.2-.16-.37-.37-.37h-.61c-.2,0-.36.17-.36.37v.38c-.26.06-.5.16-.72.29l-.27-.27c-.14-.14-.38-.14-.52,0l-.43.43c-.07.07-.11.16-.11.26s.04.19.11.26l.26.26c-.14.22-.24.47-.31.72h-.36c-.2,0-.37.16-.37.37v.61c0,.2.16.36.37.36h.36c.07.26.17.5.31.73l-.26.26c-.07.07-.11.16-.11.26s.04.19.11.26l.43.43c.07.07.16.11.26.11s.19-.04.26-.11l.27-.27c.22.13.46.23.72.29v.38c0,.2.16.37.36.37h.61c.2,0,.37-.16.37-.37v-.38c.26-.06.5-.16.72-.29l.27.27c.07.07.16.11.26.11s.19-.04.26-.11l.43-.43c.07-.07.11-.16.11-.26,0-.1-.04-.19-.11-.26l-.26-.26c.14-.22.24-.47.31-.73h.36c.2,0,.37-.16.37-.36v-.61c0-.2-.17-.37-.37-.37ZM20.02,17.52c-.64,0-1.16-.52-1.16-1.15s.52-1.15,1.16-1.15,1.17.52,1.17,1.15c0,.64-.52,1.15-1.17,1.15Z"/>
      <path class="cls-3" d="M17.73,21.34h-.21c-.04-.15-.1-.3-.18-.43l.15-.15s.06-.1.06-.15-.02-.11-.06-.15l-.25-.25c-.08-.08-.23-.08-.31,0l-.16.16c-.13-.08-.27-.13-.42-.17v-.23c0-.12-.1-.22-.22-.22h-.36c-.12,0-.21.1-.21.22v.23c-.15.04-.29.1-.42.17l-.16-.16c-.08-.08-.23-.08-.31,0l-.25.25s-.06.1-.06.15.02.11.06.15l.15.15c-.08.13-.14.27-.18.43h-.21c-.12,0-.22.1-.22.22v.36c0,.12.1.21.22.21h.21c.04.15.1.3.18.43l-.15.15s-.06.1-.06.15.02.11.06.15l.25.25s.1.06.15.06.11-.02.15-.06l.16-.16c.13.08.27.13.42.17v.23c0,.12.09.22.21.22h.36c.12,0,.22-.1.22-.22v-.23c.15-.04.29-.1.42-.17l.16.16s.1.06.15.06.11-.02.15-.06l.25-.25s.06-.1.06-.15c0-.06-.02-.11-.06-.15l-.15-.15c.08-.13.14-.28.18-.43h.21c.12,0,.22-.09.22-.21v-.36c0-.12-.1-.22-.22-.22ZM15.96,22.42c-.38,0-.69-.3-.69-.68s.31-.68.69-.68.69.3.69.68c0,.38-.31.68-.69.68Z"/>
    </g>
  </g>
</svg>